<?xml version="1.0" encoding="UTF-8" standalone="no"?><!DOCTYPE svg PUBLIC "-//W3C//DTD SVG 1.1//EN" "http://www.w3.org/Graphics/SVG/1.1/DTD/svg11.dtd"><svg width="100%" height="100%" viewBox="0 0 768 768" version="1.1" xmlns="http://www.w3.org/2000/svg" xmlns:xlink="http://www.w3.org/1999/xlink" xml:space="preserve" xmlns:serif="http://www.serif.com/" style="fill-rule:evenodd;clip-rule:evenodd;stroke-linejoin:round;stroke-miterlimit:2;"><path d="M233.766,547.32c15.409,13.369 36.086,24.133 62.031,32.29c25.945,8.158 49.908,12.237 71.888,12.237c72.738,-0 109.107,-26.399 109.107,-79.196c-0,-15.182 -3.796,-28.552 -11.387,-40.108c-7.591,-11.557 -17.505,-21.413 -29.741,-29.571c-12.236,-8.158 -37.728,-22.207 -76.476,-42.147c-46.68,-24.019 -79.14,-46.169 -97.381,-66.45c-18.241,-20.28 -27.361,-45.716 -27.361,-76.307c-0,-40.787 16.598,-73.077 49.794,-96.87c33.197,-23.793 74.154,-35.689 122.873,-35.689c49.398,-0 84.747,5.891 106.048,17.675l-0,63.56c-29.005,-20.167 -66.733,-30.251 -113.186,-30.251c-31.724,0 -57.612,6.798 -77.666,20.394c-20.054,13.596 -30.081,32.404 -30.081,56.423c0,21.753 7.081,39.485 21.244,53.194c14.162,13.709 43.563,31.44 88.203,53.193c52.117,26.059 87.24,50.645 105.367,73.758c18.128,23.113 27.192,48.152 27.192,75.117c0,43.28 -15.635,76.42 -46.906,99.42c-31.27,22.999 -74.55,34.499 -129.84,34.499c-17.448,0 -39.371,-2.776 -65.77,-8.327c-26.398,-5.552 -45.716,-12.407 -57.952,-20.564l-0,-66.28Z" style="fill:#fff;fill-rule:nonzero;"/><g><path d="M628.975,142.641c-0,-0 -15.269,-7.12 -33.988,-15.849c-37.54,-17.505 -82.163,-1.264 -99.668,36.276c-0,0 -0,0.001 -0,0.001c-17.506,37.541 -1.264,82.164 36.276,99.67c18.719,8.728 33.987,15.848 33.987,15.848l63.393,-135.946Z" style="fill:#fff;"/><path d="M678.201,212.765c1.261,-2.705 1.396,-5.799 0.376,-8.603c-1.021,-2.803 -3.113,-5.087 -5.818,-6.348c-18.969,-8.845 -57.777,-26.942 -57.777,-26.942l-9.509,20.392c0,0 38.81,18.097 57.779,26.943c2.704,1.261 5.798,1.396 8.601,0.375c2.803,-1.02 5.087,-3.112 6.347,-5.816c0.001,-0 0.001,-0.001 0.001,-0.001Z" style="fill:#fff;"/><path d="M650.943,271.22c1.26,-2.704 1.396,-5.798 0.375,-8.601c-1.02,-2.803 -3.112,-5.087 -5.816,-6.347c-18.969,-8.846 -57.779,-26.943 -57.779,-26.943l-9.508,20.392c-0,0 38.807,18.096 57.777,26.942c2.704,1.261 5.798,1.396 8.602,0.376c2.804,-1.021 5.087,-3.113 6.348,-5.818c0,0 0,-0 0.001,-0.001Z" style="fill:#fff;"/></g><g><path d="M121.415,616.422c0,-0 15.268,7.119 33.987,15.848c37.541,17.505 82.164,1.264 99.669,-36.277c0.001,-0 0.001,-0.001 0.001,-0.001c17.505,-37.54 1.264,-82.163 -36.276,-99.668c-18.72,-8.729 -33.988,-15.849 -33.988,-15.849l-63.393,135.947Z" style="fill:#fff;"/><path d="M72.22,546.231c-2.643,5.668 -0.191,12.405 5.477,15.048c18.994,8.857 57.711,26.911 57.711,26.911l9.509,-20.392c-0,-0 -38.901,-18.14 -57.845,-26.974c-2.687,-1.252 -5.76,-1.386 -8.545,-0.373c-2.785,1.014 -5.054,3.092 -6.306,5.779c-0,0 -0.001,0 -0.001,0.001Z" style="fill:#fff;"/><path d="M99.448,487.841c-1.261,2.704 -1.396,5.798 -0.376,8.602c1.021,2.804 3.113,5.087 5.817,6.348c18.97,8.846 57.778,26.942 57.778,26.942l9.508,-20.392c0,0 -38.809,-18.097 -57.778,-26.942c-2.704,-1.261 -5.798,-1.396 -8.601,-0.376c-2.803,1.02 -5.087,3.113 -6.347,5.816c-0.001,0.001 -0.001,0.001 -0.001,0.002Z" style="fill:#fff;"/></g></svg>